<?xml version="1.0" encoding="UTF-8" standalone="no"?><!DOCTYPE svg PUBLIC "-//W3C//DTD SVG 1.1//EN" "http://www.w3.org/Graphics/SVG/1.1/DTD/svg11.dtd"><!-- Generated by graphviz version 2.40.1 (20161225.0304)
 --><!-- Title: G Pages: 1 --><svg xmlns="http://www.w3.org/2000/svg" xmlns:xlink="http://www.w3.org/1999/xlink" width="1761pt" height="763pt" viewBox="0.00 0.00 1761.00 763.20">
<g id="graph0" class="graph" transform="scale(1 1) rotate(0) translate(4 759.2)">
<title>G</title>
<polygon fill="#ffffff" stroke="transparent" points="-4,4 -4,-759.2 1757,-759.2 1757,4 -4,4"/>
<g id="clust1" class="cluster">
<title>cluster_1</title>
<polygon fill="none" stroke="#000000" points="8,-8 8,-711.2 943,-711.2 943,-8 8,-8"/>
<text text-anchor="middle" x="475.5" y="-694.6" font-family="Times,serif" font-size="14.00" fill="#000000">Book a video link</text>
</g>
<g id="clust3" class="cluster">
<title>cluster_2</title>
<polygon fill="none" stroke="#000000" points="16,-304 16,-678.4 691,-678.4 691,-304 16,-304"/>
<text text-anchor="middle" x="353.5" y="-661.8" font-family="Times,serif" font-size="14.00" fill="#000000">Request booking for found prisoner</text>
</g>
<g id="clust7" class="cluster">
<title>cluster_3</title>
<polygon fill="none" stroke="#000000" points="699,-16 699,-529.6 935,-529.6 935,-16 699,-16"/>
<text text-anchor="middle" x="817" y="-513" font-family="Times,serif" font-size="14.00" fill="#000000">Request booking when not in prison</text>
</g>
<g id="clust8" class="cluster">
<title>cluster_4</title>
<polygon fill="none" stroke="#000000" points="951,-152 951,-711.2 1745,-711.2 1745,-152 951,-152"/>
<text text-anchor="middle" x="1348" y="-694.6" font-family="Times,serif" font-size="14.00" fill="#000000">View all video link bookings</text>
</g>
<g id="clust9" class="cluster">
<title>cluster_5</title>
<polygon fill="none" stroke="#000000" points="959,-160 959,-678.4 1577,-678.4 1577,-160 959,-160"/>
<text text-anchor="middle" x="1268" y="-661.8" font-family="Times,serif" font-size="14.00" fill="#000000">Change booking</text>
</g>
<g id="clust14" class="cluster">
<title>cluster_6</title>
<polygon fill="none" stroke="#000000" points="1585,-376 1585,-452.8 1737,-452.8 1737,-376 1585,-376"/>
<text text-anchor="middle" x="1661" y="-436.2" font-family="Times,serif" font-size="14.00" fill="#000000">Delete booking</text>
</g>
<!-- start -->
<g id="node1" class="node">
<title>start</title>
<polygon fill="none" stroke="#000000" points="883,-755.2 843.7627,-737.2 883,-719.2 922.2373,-737.2 883,-755.2"/>
<polyline fill="none" stroke="#000000" points="854.6698,-742.2036 854.6698,-732.1964 "/>
<polyline fill="none" stroke="#000000" points="872.0929,-724.2036 893.9071,-724.2036 "/>
<polyline fill="none" stroke="#000000" points="911.3302,-732.1964 911.3302,-742.2036 "/>
<polyline fill="none" stroke="#000000" points="893.9071,-750.1964 872.0929,-750.1964 "/>
<text text-anchor="middle" x="883" y="-733" font-family="Times,serif" font-size="14.00" fill="#000000">start</text>
</g>
<!-- a1 -->
<g id="node2" class="node">
<title>a1</title>
<ellipse fill="none" stroke="#000000" cx="591" cy="-627.6" rx="91.974" ry="18"/>
<text text-anchor="middle" x="591" y="-623.4" font-family="Times,serif" font-size="14.00" fill="#000000">Search for a prisoner</text>
</g>
<!-- start&#45;&gt;a1 -->
<g id="edge1" class="edge">
<title>start-&gt;a1</title>
<path fill="none" stroke="#000000" d="M861.0525,-728.9622C815.1316,-711.7261 707.8271,-671.4502 643.1557,-647.1763"/>
<polygon fill="#000000" stroke="#000000" points="644.1394,-643.8071 633.5472,-643.5698 641.6795,-650.3607 644.1394,-643.8071"/>
</g>
<!-- viewBookings -->
<g id="node3" class="node">
<title>viewBookings</title>
<ellipse fill="none" stroke="#000000" cx="1176" cy="-627.6" rx="69.5485" ry="18"/>
<text text-anchor="middle" x="1176" y="-623.4" font-family="Times,serif" font-size="14.00" fill="#000000">View bookings</text>
</g>
<!-- start&#45;&gt;viewBookings -->
<g id="edge2" class="edge">
<title>start-&gt;viewBookings</title>
<path fill="none" stroke="#000000" d="M905.0226,-728.9622C951.7971,-711.4657 1062.0407,-670.2278 1126.5776,-646.087"/>
<polygon fill="#000000" stroke="#000000" points="1128.0005,-649.2917 1136.1404,-642.5099 1125.548,-642.7354 1128.0005,-649.2917"/>
</g>
<!-- a2 -->
<g id="node4" class="node">
<title>a2</title>
<ellipse fill="#d3d3d3" stroke="#000000" cx="780" cy="-555.6" rx="81.1168" ry="18"/>
<text text-anchor="middle" x="780" y="-551.4" font-family="Times,serif" font-size="14.00" fill="#000000">Prisoner not listed</text>
</g>
<!-- a1&#45;&gt;a2 -->
<g id="edge3" class="edge">
<title>a1-&gt;a2</title>
<path fill="none" stroke="#000000" d="M633.4153,-611.4418C661.8952,-600.5923 699.5536,-586.2462 729.569,-574.8118"/>
<polygon fill="#000000" stroke="#000000" points="730.9255,-578.0405 739.0244,-571.2098 728.4335,-571.4991 730.9255,-578.0405"/>
</g>
<!-- b0 -->
<g id="node5" class="node">
<title>b0</title>
<ellipse fill="none" stroke="#000000" cx="475" cy="-555.6" rx="99.5616" ry="18"/>
<text text-anchor="middle" x="475" y="-551.4" font-family="Times,serif" font-size="14.00" fill="#000000">add-court-appointment</text>
</g>
<!-- a1&#45;&gt;b0 -->
<g id="edge4" class="edge">
<title>a1-&gt;b0</title>
<path fill="none" stroke="#000000" d="M563.2151,-610.3542C547.8325,-600.8064 528.5159,-588.8168 511.8828,-578.4927"/>
<polygon fill="#000000" stroke="#000000" points="513.3024,-575.2545 502.9602,-572.9546 509.6108,-581.202 513.3024,-575.2545"/>
</g>
<!-- c0 -->
<g id="node6" class="node">
<title>c0</title>
<ellipse fill="none" stroke="#000000" cx="839" cy="-478.8" rx="73.5811" ry="18"/>
<text text-anchor="middle" x="839" y="-474.6" font-family="Times,serif" font-size="14.00" fill="#000000">request-booking</text>
</g>
<!-- a1&#45;&gt;c0 -->
<g id="edge6" class="edge">
<title>a1-&gt;c0</title>
<path fill="none" stroke="#000000" d="M679.6761,-622.8028C753.5404,-616.7321 850.4776,-603.2245 875,-573.6 891.5758,-553.5754 877.054,-525.1127 861.7932,-504.6074"/>
<polygon fill="#000000" stroke="#000000" points="864.4535,-502.3281 855.5227,-496.6279 858.9496,-506.6533 864.4535,-502.3281"/>
</g>
<!-- viewBookingDetails -->
<g id="node19" class="node">
<title>viewBookingDetails</title>
<ellipse fill="none" stroke="#000000" cx="1316" cy="-555.6" rx="93.1987" ry="18"/>
<text text-anchor="middle" x="1316" y="-551.4" font-family="Times,serif" font-size="14.00" fill="#000000">view-booking-details</text>
</g>
<!-- viewBookings&#45;&gt;viewBookingDetails -->
<g id="edge27" class="edge">
<title>viewBookings-&gt;viewBookingDetails</title>
<path fill="none" stroke="#000000" d="M1207.4187,-611.4418C1227.1703,-601.2839 1252.8816,-588.0609 1274.3264,-577.0322"/>
<polygon fill="#000000" stroke="#000000" points="1275.9338,-580.1413 1283.2259,-572.4552 1272.7323,-573.9163 1275.9338,-580.1413"/>
</g>
<!-- a2&#45;&gt;c0 -->
<g id="edge5" class="edge">
<title>a2-&gt;c0</title>
<path fill="none" stroke="#000000" d="M793.6841,-537.7875C801.2796,-527.9005 810.8611,-515.4283 819.2552,-504.5018"/>
<polygon fill="#000000" stroke="#000000" points="822.0735,-506.5783 825.3901,-496.5159 816.5224,-502.3137 822.0735,-506.5783"/>
</g>
<!-- b1 -->
<g id="node7" class="node">
<title>b1</title>
<ellipse fill="#d3d3d3" stroke="#000000" cx="132" cy="-330" rx="107.6482" ry="18"/>
<text text-anchor="middle" x="132" y="-325.8" font-family="Times,serif" font-size="14.00" fill="#000000">no-appointments-for-day</text>
</g>
<!-- b0&#45;&gt;b1 -->
<g id="edge11" class="edge">
<title>b0-&gt;b1</title>
<path fill="none" stroke="#c0c0c0" stroke-dasharray="5,2" d="M377.8015,-551.5161C279.0153,-546.7373 139.4355,-538.3571 131,-529.6 86.7854,-483.7001 101.9266,-400.8446 117.3202,-357.7422"/>
<polygon fill="#c0c0c0" stroke="#c0c0c0" points="120.6742,-358.7717 120.9969,-348.1818 114.1406,-356.2591 120.6742,-358.7717"/>
</g>
<!-- b2 -->
<g id="node8" class="node">
<title>b2</title>
<ellipse fill="#d3d3d3" stroke="#000000" cx="368" cy="-330" rx="110.5936" ry="18"/>
<text text-anchor="middle" x="368" y="-325.8" font-family="Times,serif" font-size="14.00" fill="#000000">no-appointments-for-time</text>
</g>
<!-- b0&#45;&gt;b2 -->
<g id="edge12" class="edge">
<title>b0-&gt;b2</title>
<path fill="none" stroke="#c0c0c0" stroke-dasharray="5,2" d="M534.7745,-541.0659C544.1277,-537.7519 551.7654,-533.9148 555,-529.6 573.3414,-505.1338 569.422,-487.763 555,-460.8 526.0883,-406.7474 463.8724,-371.159 419.0493,-350.9382"/>
<polygon fill="#c0c0c0" stroke="#c0c0c0" points="420.3297,-347.6778 409.7668,-346.8554 417.5114,-354.0854 420.3297,-347.6778"/>
</g>
<!-- b3 -->
<g id="node9" class="node">
<title>b3</title>
<ellipse fill="#d3d3d3" stroke="#000000" cx="287" cy="-478.8" rx="138.2845" ry="18"/>
<text text-anchor="middle" x="287" y="-474.6" font-family="Times,serif" font-size="14.00" fill="#000000">appointment-no-longer-available</text>
</g>
<!-- b0&#45;&gt;b3 -->
<g id="edge13" class="edge">
<title>b0-&gt;b3</title>
<path fill="none" stroke="#c0c0c0" stroke-dasharray="5,2" d="M434.6693,-539.1245C406.6309,-527.6705 369.0119,-512.3027 338.7614,-499.9451"/>
<polygon fill="#c0c0c0" stroke="#c0c0c0" points="339.8011,-496.5891 329.2201,-496.0474 337.1539,-503.0692 339.8011,-496.5891"/>
</g>
<!-- b4 -->
<g id="node10" class="node">
<title>b4</title>
<ellipse fill="none" stroke="#000000" cx="499" cy="-478.8" rx="56.1531" ry="18"/>
<text text-anchor="middle" x="499" y="-474.6" font-family="Times,serif" font-size="14.00" fill="#000000">select-court</text>
</g>
<!-- b0&#45;&gt;b4 -->
<g id="edge7" class="edge">
<title>b0-&gt;b4</title>
<path fill="none" stroke="#000000" d="M480.6877,-537.3995C483.557,-528.2176 487.0995,-516.8817 490.3018,-506.6343"/>
<polygon fill="#000000" stroke="#000000" points="493.711,-507.4587 493.3532,-496.8699 487.0297,-505.3707 493.711,-507.4587"/>
</g>
<!-- c1 -->
<g id="node13" class="node">
<title>c1</title>
<ellipse fill="none" stroke="#000000" cx="825" cy="-402" rx="80.4325" ry="18"/>
<text text-anchor="middle" x="825" y="-397.8" font-family="Times,serif" font-size="14.00" fill="#000000">check-availability</text>
</g>
<!-- c0&#45;&gt;c1 -->
<g id="edge20" class="edge">
<title>c0-&gt;c1</title>
<path fill="none" stroke="#000000" d="M835.6822,-460.5995C834.0258,-451.5132 831.985,-440.3176 830.1324,-430.1549"/>
<polygon fill="#000000" stroke="#000000" points="833.5307,-429.2801 828.294,-420.0699 826.6442,-430.5355 833.5307,-429.2801"/>
</g>
<!-- b1&#45;&gt;b0 -->
<g id="edge14" class="edge">
<title>b1-&gt;b0</title>
<path fill="none" stroke="#c0c0c0" stroke-dasharray="5,2" d="M130.6055,-348.1818C122.7358,-387.3223 101.2408,-480.0204 149,-529.6 156.7894,-537.6863 276.4025,-545.4513 368.5444,-550.3561"/>
<polygon fill="#c0c0c0" stroke="#c0c0c0" points="368.6135,-553.8645 378.7838,-550.8955 368.9818,-546.8741 368.6135,-553.8645"/>
</g>
<!-- b2&#45;&gt;b0 -->
<g id="edge15" class="edge">
<title>b2-&gt;b0</title>
<path fill="none" stroke="#c0c0c0" stroke-dasharray="5,2" d="M421.0314,-345.9646C470.6887,-365.051 541.5495,-402.0009 573,-460.8 587.422,-487.763 591.3414,-505.1338 573,-529.6 570.1939,-533.3432 564.0739,-536.727 556.1841,-539.7216"/>
<polygon fill="#c0c0c0" stroke="#c0c0c0" points="554.9736,-536.4359 546.6067,-542.9356 557.2007,-543.0722 554.9736,-536.4359"/>
</g>
<!-- b5 -->
<g id="node11" class="node">
<title>b5</title>
<ellipse fill="none" stroke="#000000" cx="327" cy="-402" rx="60.2479" ry="18"/>
<text text-anchor="middle" x="327" y="-397.8" font-family="Times,serif" font-size="14.00" fill="#000000">select-rooms</text>
</g>
<!-- b3&#45;&gt;b5 -->
<g id="edge16" class="edge">
<title>b3-&gt;b5</title>
<path fill="none" stroke="#c0c0c0" stroke-dasharray="5,2" d="M290.6395,-460.5995C294.6872,-450.9934 300.7151,-439.0297 306.7896,-428.4214"/>
<polygon fill="#c0c0c0" stroke="#c0c0c0" points="309.9703,-429.9216 312.0912,-419.5412 303.9599,-426.3334 309.9703,-429.9216"/>
</g>
<!-- b4&#45;&gt;b5 -->
<g id="edge8" class="edge">
<title>b4-&gt;b5</title>
<path fill="none" stroke="#000000" d="M466.2433,-464.1737C438.9785,-451.9997 399.943,-434.5699 370.1366,-421.261"/>
<polygon fill="#000000" stroke="#000000" points="371.3682,-417.9779 360.8101,-417.0966 368.5142,-424.3697 371.3682,-417.9779"/>
</g>
<!-- b5&#45;&gt;b1 -->
<g id="edge17" class="edge">
<title>b5-&gt;b1</title>
<path fill="none" stroke="#c0c0c0" stroke-dasharray="5,2" d="M288.9391,-387.9468C259.5833,-377.1077 218.6027,-361.9764 185.8796,-349.894"/>
<polygon fill="#c0c0c0" stroke="#c0c0c0" points="187.0429,-346.5926 176.4496,-346.4122 184.6182,-353.1593 187.0429,-346.5926"/>
</g>
<!-- b5&#45;&gt;b2 -->
<g id="edge18" class="edge">
<title>b5-&gt;b2</title>
<path fill="none" stroke="#c0c0c0" stroke-dasharray="5,2" d="M337.1348,-384.2022C341.8301,-375.9569 347.5098,-365.9828 352.7103,-356.8501"/>
<polygon fill="#c0c0c0" stroke="#c0c0c0" points="355.79,-358.5149 357.697,-348.0931 349.7071,-355.051 355.79,-358.5149"/>
</g>
<!-- b5&#45;&gt;b3 -->
<g id="edge19" class="edge">
<title>b5-&gt;b3</title>
<path fill="none" stroke="#c0c0c0" stroke-dasharray="5,2" d="M323.4155,-420.0699C319.4434,-429.5176 313.5387,-441.2723 307.5534,-451.7781"/>
<polygon fill="#c0c0c0" stroke="#c0c0c0" points="304.4121,-450.2134 302.3194,-460.5995 310.4322,-453.7853 304.4121,-450.2134"/>
</g>
<!-- b6 -->
<g id="node12" class="node">
<title>b6</title>
<ellipse fill="none" stroke="#000000" cx="590" cy="-330" rx="93.1987" ry="18"/>
<text text-anchor="middle" x="590" y="-325.8" font-family="Times,serif" font-size="14.00" fill="#000000">confirm-appointment</text>
</g>
<!-- b5&#45;&gt;b6 -->
<g id="edge9" class="edge">
<title>b5-&gt;b6</title>
<path fill="none" stroke="#000000" d="M371.6144,-389.7862C414.1176,-378.1503 478.5404,-360.5137 526.4128,-347.4079"/>
<polygon fill="#000000" stroke="#000000" points="527.338,-350.7835 536.0589,-344.7671 525.4896,-344.0319 527.338,-350.7835"/>
</g>
<!-- b6&#45;&gt;a1 -->
<g id="edge10" class="edge">
<title>b6-&gt;a1</title>
<path fill="none" stroke="#000000" d="M590.0615,-348.3086C590.2302,-398.4928 590.7007,-538.5232 590.9042,-599.0875"/>
<polygon fill="#000000" stroke="#000000" points="587.4053,-599.4436 590.939,-609.4318 594.4052,-599.42 587.4053,-599.4436"/>
</g>
<!-- c2 -->
<g id="node14" class="node">
<title>c2</title>
<ellipse fill="none" stroke="#000000" cx="815" cy="-330" rx="56.1531" ry="18"/>
<text text-anchor="middle" x="815" y="-325.8" font-family="Times,serif" font-size="14.00" fill="#000000">select-court</text>
</g>
<!-- c1&#45;&gt;c2 -->
<g id="edge21" class="edge">
<title>c1-&gt;c2</title>
<path fill="none" stroke="#000000" d="M822.4766,-383.8314C821.4071,-376.131 820.1353,-366.9743 818.9468,-358.4166"/>
<polygon fill="#000000" stroke="#000000" points="822.3999,-357.8367 817.5574,-348.4133 815.4664,-358.7997 822.3999,-357.8367"/>
</g>
<!-- c3 -->
<g id="node15" class="node">
<title>c3</title>
<ellipse fill="none" stroke="#000000" cx="813" cy="-258" rx="64.8234" ry="18"/>
<text text-anchor="middle" x="813" y="-253.8" font-family="Times,serif" font-size="14.00" fill="#000000">validate-court</text>
</g>
<!-- c2&#45;&gt;c3 -->
<g id="edge22" class="edge">
<title>c2-&gt;c3</title>
<path fill="none" stroke="#000000" d="M814.4953,-311.8314C814.2814,-304.131 814.0271,-294.9743 813.7894,-286.4166"/>
<polygon fill="#000000" stroke="#000000" points="817.2879,-286.3122 813.5115,-276.4133 810.2906,-286.5066 817.2879,-286.3122"/>
</g>
<!-- c4 -->
<g id="node16" class="node">
<title>c4</title>
<ellipse fill="none" stroke="#000000" cx="809" cy="-186" rx="94.8567" ry="18"/>
<text text-anchor="middle" x="809" y="-181.8" font-family="Times,serif" font-size="14.00" fill="#000000">enter-offender-details</text>
</g>
<!-- c3&#45;&gt;c4 -->
<g id="edge23" class="edge">
<title>c3-&gt;c4</title>
<path fill="none" stroke="#000000" d="M811.9906,-239.8314C811.5628,-232.131 811.0541,-222.9743 810.5787,-214.4166"/>
<polygon fill="#000000" stroke="#000000" points="814.0724,-214.2037 810.023,-204.4133 807.0831,-214.592 814.0724,-214.2037"/>
</g>
<!-- c5 -->
<g id="node17" class="node">
<title>c5</title>
<ellipse fill="none" stroke="#000000" cx="807" cy="-114" rx="100.1007" ry="18"/>
<text text-anchor="middle" x="807" y="-109.8" font-family="Times,serif" font-size="14.00" fill="#000000">create-booking-request</text>
</g>
<!-- c4&#45;&gt;c5 -->
<g id="edge24" class="edge">
<title>c4-&gt;c5</title>
<path fill="none" stroke="#000000" d="M808.4953,-167.8314C808.2814,-160.131 808.0271,-150.9743 807.7894,-142.4166"/>
<polygon fill="#000000" stroke="#000000" points="811.2879,-142.3122 807.5115,-132.4133 804.2906,-142.5066 811.2879,-142.3122"/>
</g>
<!-- c6 -->
<g id="node18" class="node">
<title>c6</title>
<ellipse fill="none" stroke="#000000" cx="836" cy="-42" rx="60.8332" ry="18"/>
<text text-anchor="middle" x="836" y="-37.8" font-family="Times,serif" font-size="14.00" fill="#000000">confirmation</text>
</g>
<!-- c5&#45;&gt;c6 -->
<g id="edge25" class="edge">
<title>c5-&gt;c6</title>
<path fill="none" stroke="#000000" d="M814.3179,-95.8314C817.5364,-87.8406 821.3865,-78.2819 824.9432,-69.4514"/>
<polygon fill="#000000" stroke="#000000" points="828.2953,-70.4969 828.7849,-59.9134 821.8022,-67.8816 828.2953,-70.4969"/>
</g>
<!-- c6&#45;&gt;c0 -->
<g id="edge26" class="edge">
<title>c6-&gt;c0</title>
<path fill="none" stroke="#000000" d="M870.9357,-56.9591C887.3669,-65.8523 905.5953,-78.793 916,-96 936.8248,-130.4395 926,-145.7538 926,-186 926,-330 926,-330 926,-330 926,-384.8377 947.9352,-409.7236 914,-452.8 911.5082,-455.963 906.2459,-459.0368 899.6078,-461.8973"/>
<polygon fill="#000000" stroke="#000000" points="897.9126,-458.7991 889.8341,-465.654 900.4241,-465.3331 897.9126,-458.7991"/>
</g>
<!-- d0 -->
<g id="node20" class="node">
<title>d0</title>
<ellipse fill="none" stroke="#000000" cx="1316" cy="-478.8" rx="95.4443" ry="18"/>
<text text-anchor="middle" x="1316" y="-474.6" font-family="Times,serif" font-size="14.00" fill="#000000">change-date-and-time</text>
</g>
<!-- viewBookingDetails&#45;&gt;d0 -->
<g id="edge28" class="edge">
<title>viewBookingDetails-&gt;d0</title>
<path fill="none" stroke="#000000" d="M1316,-537.3995C1316,-528.3132 1316,-517.1176 1316,-506.9549"/>
<polygon fill="#000000" stroke="#000000" points="1319.5001,-506.8698 1316,-496.8699 1312.5001,-506.8699 1319.5001,-506.8698"/>
</g>
<!-- e0 -->
<g id="node21" class="node">
<title>e0</title>
<ellipse fill="none" stroke="#000000" cx="1467" cy="-186" rx="79.2942" ry="18"/>
<text text-anchor="middle" x="1467" y="-181.8" font-family="Times,serif" font-size="14.00" fill="#000000">change-time-only</text>
</g>
<!-- viewBookingDetails&#45;&gt;e0 -->
<g id="edge29" class="edge">
<title>viewBookingDetails-&gt;e0</title>
<path fill="none" stroke="#000000" d="M1385.5902,-543.6389C1400.9222,-539.7953 1414.3019,-535.086 1420,-529.6 1442.9397,-507.5142 1416.8377,-482.6522 1440,-460.8 1451.6066,-449.8499 1462.5754,-462.8123 1475,-452.8 1542.5908,-398.3322 1539.1023,-360.7239 1558,-276 1561.4832,-260.3838 1565.917,-253.904 1558,-240 1549.5689,-225.1932 1535.302,-214.0272 1520.5346,-205.8075"/>
<polygon fill="#000000" stroke="#000000" points="1521.8158,-202.5305 1511.3229,-201.0642 1518.6111,-208.7539 1521.8158,-202.5305"/>
</g>
<!-- f0 -->
<g id="node22" class="node">
<title>f0</title>
<ellipse fill="none" stroke="#000000" cx="1126" cy="-402" rx="97.8363" ry="18"/>
<text text-anchor="middle" x="1126" y="-397.8" font-family="Times,serif" font-size="14.00" fill="#000000">add/change-comments</text>
</g>
<!-- viewBookingDetails&#45;&gt;f0 -->
<g id="edge30" class="edge">
<title>viewBookingDetails-&gt;f0</title>
<path fill="none" stroke="#000000" d="M1249.6279,-542.9113C1233.4181,-538.9446 1218.7819,-534.3537 1212,-529.6 1176.0334,-504.3892 1150.7924,-458.9294 1137.3356,-429.629"/>
<polygon fill="#000000" stroke="#000000" points="1140.48,-428.0858 1133.2252,-420.3645 1134.0814,-430.9247 1140.48,-428.0858"/>
</g>
<!-- g0 -->
<g id="node23" class="node">
<title>g0</title>
<ellipse fill="none" stroke="#000000" cx="1509" cy="-478.8" rx="59.6492" ry="18"/>
<text text-anchor="middle" x="1509" y="-474.6" font-family="Times,serif" font-size="14.00" fill="#000000">delete-check</text>
</g>
<!-- viewBookingDetails&#45;&gt;g0 -->
<g id="edge31" class="edge">
<title>viewBookingDetails-&gt;g0</title>
<path fill="none" stroke="#000000" d="M1388.8273,-544.3583C1404.4192,-540.6729 1420.5408,-535.8561 1435,-529.6 1451.1901,-522.595 1467.5317,-511.8517 1480.725,-502.0461"/>
<polygon fill="#000000" stroke="#000000" points="1483.0913,-504.6425 1488.907,-495.7865 1478.838,-499.0829 1483.0913,-504.6425"/>
</g>
<!-- d1 -->
<g id="node24" class="node">
<title>d1</title>
<ellipse fill="none" stroke="#000000" cx="1345" cy="-402" rx="102.9628" ry="18"/>
<text text-anchor="middle" x="1345" y="-397.8" font-family="Times,serif" font-size="14.00" fill="#000000">date-and-time-available</text>
</g>
<!-- d0&#45;&gt;d1 -->
<g id="edge32" class="edge">
<title>d0-&gt;d1</title>
<path fill="none" stroke="#000000" d="M1322.8726,-460.5995C1326.3758,-451.3219 1330.7095,-439.8453 1334.6104,-429.5144"/>
<polygon fill="#000000" stroke="#000000" points="1337.9184,-430.6616 1338.1767,-420.0699 1331.3697,-428.1887 1337.9184,-430.6616"/>
</g>
<!-- d2 -->
<g id="node25" class="node">
<title>d2</title>
<ellipse fill="#d3d3d3" stroke="#000000" cx="1467" cy="-258" rx="81.6558" ry="18"/>
<text text-anchor="middle" x="1467" y="-253.8" font-family="Times,serif" font-size="14.00" fill="#000000">time-not-available</text>
</g>
<!-- d0&#45;&gt;d2 -->
<g id="edge33" class="edge">
<title>d0-&gt;d2</title>
<path fill="none" stroke="#c0c0c0" stroke-dasharray="5,2" d="M1383.1924,-465.9155C1415.1911,-460.1013 1446.7589,-454.2154 1448,-452.8 1488.4603,-406.6565 1476.6475,-328.2227 1469.4876,-286.3399"/>
<polygon fill="#c0c0c0" stroke="#c0c0c0" points="1472.902,-285.5427 1467.7611,-276.2787 1466.0029,-286.7266 1472.902,-285.5427"/>
</g>
<!-- e0&#45;&gt;d1 -->
<g id="edge39" class="edge">
<title>e0-&gt;d1</title>
<path fill="none" stroke="#000000" d="M1423.5418,-201.0648C1405.669,-209.5959 1386.6863,-222.2028 1376,-240 1351.2641,-281.1955 1382.7714,-301.4127 1371,-348 1368.7035,-357.0887 1364.8032,-366.4683 1360.7124,-374.8085"/>
<polygon fill="#000000" stroke="#000000" points="1357.5912,-373.2245 1356.0882,-383.7122 1363.8034,-376.4509 1357.5912,-373.2245"/>
</g>
<!-- e0&#45;&gt;d2 -->
<g id="edge43" class="edge">
<title>e0-&gt;d2</title>
<path fill="none" stroke="#c0c0c0" stroke-dasharray="5,2" d="M1472.976,-204.4133C1473.7071,-212.0593 1473.9203,-221.1084 1473.6155,-229.5726"/>
<polygon fill="#c0c0c0" stroke="#c0c0c0" points="1470.1048,-229.6264 1472.9524,-239.8314 1477.0902,-230.078 1470.1048,-229.6264"/>
</g>
<!-- d6 -->
<g id="node28" class="node">
<title>d6</title>
<ellipse fill="none" stroke="#000000" cx="1038" cy="-258" rx="70.6258" ry="18"/>
<text text-anchor="middle" x="1038" y="-253.8" font-family="Times,serif" font-size="14.00" fill="#000000">confirm-update</text>
</g>
<!-- f0&#45;&gt;d6 -->
<g id="edge44" class="edge">
<title>f0-&gt;d6</title>
<path fill="none" stroke="#000000" d="M1085.482,-385.5471C1069.434,-376.8601 1052.56,-364.5145 1043,-348 1032.2673,-329.4597 1031.5833,-305.0124 1033.2701,-286.2772"/>
<polygon fill="#000000" stroke="#000000" points="1036.756,-286.6014 1034.4406,-276.2627 1029.8033,-285.7888 1036.756,-286.6014"/>
</g>
<!-- g1 -->
<g id="node29" class="node">
<title>g1</title>
<ellipse fill="none" stroke="#000000" cx="1661" cy="-402" rx="67.7529" ry="18"/>
<text text-anchor="middle" x="1661" y="-397.8" font-family="Times,serif" font-size="14.00" fill="#000000">confirm-delete</text>
</g>
<!-- g0&#45;&gt;g1 -->
<g id="edge45" class="edge">
<title>g0-&gt;g1</title>
<path fill="none" stroke="#000000" d="M1550.3886,-465.6093C1560.579,-461.886 1571.3357,-457.5419 1581,-452.8 1597.3904,-444.7579 1614.6031,-434.1426 1628.8454,-424.6961"/>
<polygon fill="#000000" stroke="#000000" points="1630.9607,-427.4911 1637.2956,-418.9987 1627.0475,-421.6871 1630.9607,-427.4911"/>
</g>
<!-- d4 -->
<g id="node26" class="node">
<title>d4</title>
<ellipse fill="none" stroke="#000000" cx="1207" cy="-330" rx="155.115" ry="18"/>
<text text-anchor="middle" x="1207" y="-325.8" font-family="Times,serif" font-size="14.00" fill="#000000">select-rooms-and-optional-comments</text>
</g>
<!-- d1&#45;&gt;d4 -->
<g id="edge40" class="edge">
<title>d1-&gt;d4</title>
<path fill="none" stroke="#000000" d="M1311.9456,-384.7542C1293.2756,-375.0133 1269.7342,-362.7309 1249.6814,-352.2685"/>
<polygon fill="#000000" stroke="#000000" points="1251.2283,-349.1279 1240.7434,-347.6053 1247.9903,-355.334 1251.2283,-349.1279"/>
</g>
<!-- d2&#45;&gt;d0 -->
<g id="edge34" class="edge">
<title>d2-&gt;d0</title>
<path fill="none" stroke="#c0c0c0" stroke-dasharray="5,2" d="M1477.4471,-275.99C1492.1042,-313.8744 1510.0939,-402.5124 1466,-452.8 1464.7724,-454.2 1433.8734,-459.974 1400.3956,-465.726"/>
<polygon fill="#c0c0c0" stroke="#c0c0c0" points="1399.7018,-462.2937 1390.4323,-467.4245 1400.8783,-469.1941 1399.7018,-462.2937"/>
</g>
<!-- d2&#45;&gt;e0 -->
<g id="edge35" class="edge">
<title>d2-&gt;e0</title>
<path fill="none" stroke="#c0c0c0" stroke-dasharray="5,2" d="M1461.0476,-239.8314C1460.2972,-232.131 1460.0763,-222.9743 1460.3849,-214.4166"/>
<polygon fill="#c0c0c0" stroke="#c0c0c0" points="1463.8792,-214.6161 1461.024,-204.4133 1456.8935,-214.1697 1463.8792,-214.6161"/>
</g>
<!-- d4&#45;&gt;d2 -->
<g id="edge36" class="edge">
<title>d4-&gt;d2</title>
<path fill="none" stroke="#c0c0c0" stroke-dasharray="5,2" d="M1266.9757,-313.3913C1308.7662,-301.8186 1364.3176,-286.4351 1406.272,-274.817"/>
<polygon fill="#c0c0c0" stroke="#c0c0c0" points="1407.3828,-278.1412 1416.086,-272.0993 1405.5146,-271.3951 1407.3828,-278.1412"/>
</g>
<!-- d5 -->
<g id="node27" class="node">
<title>d5</title>
<ellipse fill="#d3d3d3" stroke="#000000" cx="1237" cy="-258" rx="110.4948" ry="18"/>
<text text-anchor="middle" x="1237" y="-253.8" font-family="Times,serif" font-size="14.00" fill="#000000">room-no-longer-available</text>
</g>
<!-- d4&#45;&gt;d5 -->
<g id="edge37" class="edge">
<title>d4-&gt;d5</title>
<path fill="none" stroke="#c0c0c0" stroke-dasharray="5,2" d="M1208.6179,-311.8314C1211.196,-303.7547 1215.0242,-294.0761 1219.1144,-285.1668"/>
<polygon fill="#c0c0c0" stroke="#c0c0c0" points="1222.3881,-286.4377 1223.6088,-275.9134 1216.0915,-283.3794 1222.3881,-286.4377"/>
</g>
<!-- d4&#45;&gt;d6 -->
<g id="edge41" class="edge">
<title>d4-&gt;d6</title>
<path fill="none" stroke="#000000" d="M1166.0898,-312.5708C1141.3161,-302.0163 1109.6588,-288.5292 1084.0149,-277.604"/>
<polygon fill="#000000" stroke="#000000" points="1085.0796,-274.2532 1074.5079,-273.5537 1082.3359,-280.6932 1085.0796,-274.2532"/>
</g>
<!-- d5&#45;&gt;d4 -->
<g id="edge38" class="edge">
<title>d5-&gt;d4</title>
<path fill="none" stroke="#c0c0c0" stroke-dasharray="5,2" d="M1235.3038,-276.4133C1232.74,-284.3991 1228.9734,-293.9155 1224.9478,-302.6975"/>
<polygon fill="#c0c0c0" stroke="#c0c0c0" points="1221.7329,-301.3059 1220.5227,-311.8314 1228.0326,-304.3579 1221.7329,-301.3059"/>
</g>
<!-- d6&#45;&gt;viewBookings -->
<g id="edge42" class="edge">
<title>d6-&gt;viewBookings</title>
<path fill="none" stroke="#000000" d="M1031.9912,-275.9514C1023.4969,-302.9694 1009,-355.8415 1009,-402 1009,-478.8 1009,-478.8 1009,-478.8 1009,-542.6422 1077.8752,-585.854 1127.1617,-608.603"/>
<polygon fill="#000000" stroke="#000000" points="1125.8659,-611.8575 1136.4233,-612.7465 1128.7245,-605.4678 1125.8659,-611.8575"/>
</g>
<!-- g1&#45;&gt;viewBookings -->
<g id="edge46" class="edge">
<title>g1-&gt;viewBookings</title>
<path fill="none" stroke="#000000" d="M1654.1259,-420.2476C1642.6794,-448.1196 1617.0423,-501.0602 1578,-529.6 1525.717,-567.8187 1347.6601,-600.816 1246.9374,-616.9876"/>
<polygon fill="#000000" stroke="#000000" points="1246.1676,-613.566 1236.8418,-618.5938 1247.2675,-620.479 1246.1676,-613.566"/>
</g>
</g>
</svg>