<?xml version="1.0" encoding="UTF-8" standalone="no"?><!DOCTYPE svg PUBLIC "-//W3C//DTD SVG 1.1//EN" "http://www.w3.org/Graphics/SVG/1.1/DTD/svg11.dtd"><!-- Generated by graphviz version 2.40.1 (20161225.0304)
 --><!-- Title: G Pages: 1 --><svg xmlns="http://www.w3.org/2000/svg" xmlns:xlink="http://www.w3.org/1999/xlink" width="1145pt" height="758pt" viewBox="0.00 0.00 1145.00 758.40">
<g id="graph0" class="graph" transform="scale(1 1) rotate(0) translate(4 754.4)">
<title>G</title>
<polygon fill="#ffffff" stroke="transparent" points="-4,4 -4,-754.4 1141,-754.4 1141,4 -4,4"/>
<g id="clust1" class="cluster">
<title>cluster_1</title>
<polygon fill="none" stroke="#000000" points="8,-8 8,-706.4 943,-706.4 943,-8 8,-8"/>
<text text-anchor="middle" x="475.5" y="-689.8" font-family="Times,serif" font-size="14.00" fill="#000000">Book a video link</text>
</g>
<g id="clust3" class="cluster">
<title>cluster_2</title>
<polygon fill="none" stroke="#000000" points="16,-304 16,-673.6 691,-673.6 691,-304 16,-304"/>
<text text-anchor="middle" x="353.5" y="-657" font-family="Times,serif" font-size="14.00" fill="#000000">Request booking for found prisoner</text>
</g>
<g id="clust7" class="cluster">
<title>cluster_3</title>
<polygon fill="none" stroke="#000000" points="699,-16 699,-524.8 935,-524.8 935,-16 699,-16"/>
<text text-anchor="middle" x="817" y="-508.2" font-family="Times,serif" font-size="14.00" fill="#000000">Request booking when not in prison</text>
</g>
<g id="clust8" class="cluster">
<title>cluster_4</title>
<polygon fill="none" stroke="#000000" points="951,-596.8 951,-673.6 1129,-673.6 1129,-596.8 951,-596.8"/>
<text text-anchor="middle" x="1040" y="-657" font-family="Times,serif" font-size="14.00" fill="#000000">View all video link bookings</text>
</g>
<!-- start -->
<g id="node1" class="node">
<title>start</title>
<polygon fill="none" stroke="#000000" points="810,-750.4 770.7627,-732.4 810,-714.4 849.2373,-732.4 810,-750.4"/>
<polyline fill="none" stroke="#000000" points="781.6698,-737.4036 781.6698,-727.3964 "/>
<polyline fill="none" stroke="#000000" points="799.0929,-719.4036 820.9071,-719.4036 "/>
<polyline fill="none" stroke="#000000" points="838.3302,-727.3964 838.3302,-737.4036 "/>
<polyline fill="none" stroke="#000000" points="820.9071,-745.3964 799.0929,-745.3964 "/>
<text text-anchor="middle" x="810" y="-728.2" font-family="Times,serif" font-size="14.00" fill="#000000">start</text>
</g>
<!-- a1 -->
<g id="node2" class="node">
<title>a1</title>
<ellipse fill="none" stroke="#000000" cx="591" cy="-622.8" rx="91.974" ry="18"/>
<text text-anchor="middle" x="591" y="-618.6" font-family="Times,serif" font-size="14.00" fill="#000000">Search for a prisoner</text>
</g>
<!-- start&#45;&gt;a1 -->
<g id="edge1" class="edge">
<title>start-&gt;a1</title>
<path fill="none" stroke="#000000" d="M790.9483,-722.8654C756.119,-705.4349 681.3855,-668.034 633.8002,-644.2196"/>
<polygon fill="#000000" stroke="#000000" points="635.174,-640.9934 624.665,-639.6479 632.0412,-647.2532 635.174,-640.9934"/>
</g>
<!-- viewBookings -->
<g id="node3" class="node">
<title>viewBookings</title>
<ellipse fill="none" stroke="#000000" cx="1029" cy="-622.8" rx="69.5485" ry="18"/>
<text text-anchor="middle" x="1029" y="-618.6" font-family="Times,serif" font-size="14.00" fill="#000000">View bookings</text>
</g>
<!-- start&#45;&gt;viewBookings -->
<g id="edge2" class="edge">
<title>start-&gt;viewBookings</title>
<path fill="none" stroke="#000000" d="M829.0517,-722.8654C864.2713,-705.2396 940.2942,-667.1934 987.789,-643.4243"/>
<polygon fill="#000000" stroke="#000000" points="989.5108,-646.4765 996.887,-638.8711 986.378,-640.2167 989.5108,-646.4765"/>
</g>
<!-- a2 -->
<g id="node4" class="node">
<title>a2</title>
<ellipse fill="#d3d3d3" stroke="#000000" cx="780" cy="-550.8" rx="81.1168" ry="18"/>
<text text-anchor="middle" x="780" y="-546.6" font-family="Times,serif" font-size="14.00" fill="#000000">Prisoner not listed</text>
</g>
<!-- a1&#45;&gt;a2 -->
<g id="edge3" class="edge">
<title>a1-&gt;a2</title>
<path fill="none" stroke="#000000" d="M633.4153,-606.6418C661.8952,-595.7923 699.5536,-581.4462 729.569,-570.0118"/>
<polygon fill="#000000" stroke="#000000" points="730.9255,-573.2405 739.0244,-566.4098 728.4335,-566.6991 730.9255,-573.2405"/>
</g>
<!-- b0 -->
<g id="node5" class="node">
<title>b0</title>
<ellipse fill="none" stroke="#000000" cx="475" cy="-550.8" rx="99.5616" ry="18"/>
<text text-anchor="middle" x="475" y="-546.6" font-family="Times,serif" font-size="14.00" fill="#000000">add-court-appointment</text>
</g>
<!-- a1&#45;&gt;b0 -->
<g id="edge4" class="edge">
<title>a1-&gt;b0</title>
<path fill="none" stroke="#000000" d="M563.2151,-605.5542C547.8325,-596.0064 528.5159,-584.0168 511.8828,-573.6927"/>
<polygon fill="#000000" stroke="#000000" points="513.3024,-570.4545 502.9602,-568.1546 509.6108,-576.402 513.3024,-570.4545"/>
</g>
<!-- c0 -->
<g id="node6" class="node">
<title>c0</title>
<ellipse fill="none" stroke="#000000" cx="839" cy="-474" rx="73.5811" ry="18"/>
<text text-anchor="middle" x="839" y="-469.8" font-family="Times,serif" font-size="14.00" fill="#000000">request-booking</text>
</g>
<!-- a1&#45;&gt;c0 -->
<g id="edge6" class="edge">
<title>a1-&gt;c0</title>
<path fill="none" stroke="#000000" d="M679.6761,-618.0028C753.5404,-611.9321 850.4776,-598.4245 875,-568.8 891.5758,-548.7754 877.054,-520.3127 861.7932,-499.8074"/>
<polygon fill="#000000" stroke="#000000" points="864.4535,-497.5281 855.5227,-491.8279 858.9496,-501.8533 864.4535,-497.5281"/>
</g>
<!-- a2&#45;&gt;c0 -->
<g id="edge5" class="edge">
<title>a2-&gt;c0</title>
<path fill="none" stroke="#000000" d="M793.6841,-532.9875C801.2796,-523.1005 810.8611,-510.6283 819.2552,-499.7018"/>
<polygon fill="#000000" stroke="#000000" points="822.0735,-501.7783 825.3901,-491.7159 816.5224,-497.5137 822.0735,-501.7783"/>
</g>
<!-- b1 -->
<g id="node7" class="node">
<title>b1</title>
<ellipse fill="#d3d3d3" stroke="#000000" cx="132" cy="-330" rx="107.6482" ry="18"/>
<text text-anchor="middle" x="132" y="-325.8" font-family="Times,serif" font-size="14.00" fill="#000000">no-appointments-for-day</text>
</g>
<!-- b0&#45;&gt;b1 -->
<g id="edge11" class="edge">
<title>b0-&gt;b1</title>
<path fill="none" stroke="#c0c0c0" stroke-dasharray="5,2" d="M377.8031,-546.7146C279.0184,-541.9344 139.4399,-533.5529 131,-524.8 87.9336,-480.1362 102.4396,-399.5591 117.4547,-357.3984"/>
<polygon fill="#c0c0c0" stroke="#c0c0c0" points="120.7318,-358.6276 121.0464,-348.0375 114.1964,-356.12 120.7318,-358.6276"/>
</g>
<!-- b2 -->
<g id="node8" class="node">
<title>b2</title>
<ellipse fill="#d3d3d3" stroke="#000000" cx="368" cy="-330" rx="110.5936" ry="18"/>
<text text-anchor="middle" x="368" y="-325.8" font-family="Times,serif" font-size="14.00" fill="#000000">no-appointments-for-time</text>
</g>
<!-- b0&#45;&gt;b2 -->
<g id="edge12" class="edge">
<title>b0-&gt;b2</title>
<path fill="none" stroke="#c0c0c0" stroke-dasharray="5,2" d="M534.7745,-536.2659C544.1277,-532.9519 551.7654,-529.1148 555,-524.8 573.3414,-500.3338 569.6525,-482.8385 555,-456 526.4066,-403.6264 465.6905,-369.7752 421.0852,-350.4897"/>
<polygon fill="#c0c0c0" stroke="#c0c0c0" points="422.4034,-347.2472 411.8288,-346.594 419.6881,-353.6991 422.4034,-347.2472"/>
</g>
<!-- b3 -->
<g id="node9" class="node">
<title>b3</title>
<ellipse fill="#d3d3d3" stroke="#000000" cx="287" cy="-474" rx="138.2845" ry="18"/>
<text text-anchor="middle" x="287" y="-469.8" font-family="Times,serif" font-size="14.00" fill="#000000">appointment-no-longer-available</text>
</g>
<!-- b0&#45;&gt;b3 -->
<g id="edge13" class="edge">
<title>b0-&gt;b3</title>
<path fill="none" stroke="#c0c0c0" stroke-dasharray="5,2" d="M434.6693,-534.3245C406.6309,-522.8705 369.0119,-507.5027 338.7614,-495.1451"/>
<polygon fill="#c0c0c0" stroke="#c0c0c0" points="339.8011,-491.7891 329.2201,-491.2474 337.1539,-498.2692 339.8011,-491.7891"/>
</g>
<!-- b4 -->
<g id="node10" class="node">
<title>b4</title>
<ellipse fill="none" stroke="#000000" cx="499" cy="-474" rx="56.1531" ry="18"/>
<text text-anchor="middle" x="499" y="-469.8" font-family="Times,serif" font-size="14.00" fill="#000000">select-court</text>
</g>
<!-- b0&#45;&gt;b4 -->
<g id="edge7" class="edge">
<title>b0-&gt;b4</title>
<path fill="none" stroke="#000000" d="M480.6877,-532.5995C483.557,-523.4176 487.0995,-512.0817 490.3018,-501.8343"/>
<polygon fill="#000000" stroke="#000000" points="493.711,-502.6587 493.3532,-492.0699 487.0297,-500.5707 493.711,-502.6587"/>
</g>
<!-- c1 -->
<g id="node13" class="node">
<title>c1</title>
<ellipse fill="none" stroke="#000000" cx="825" cy="-402" rx="80.4325" ry="18"/>
<text text-anchor="middle" x="825" y="-397.8" font-family="Times,serif" font-size="14.00" fill="#000000">check-availability</text>
</g>
<!-- c0&#45;&gt;c1 -->
<g id="edge20" class="edge">
<title>c0-&gt;c1</title>
<path fill="none" stroke="#000000" d="M835.4672,-455.8314C833.9699,-448.131 832.1895,-438.9743 830.5255,-430.4166"/>
<polygon fill="#000000" stroke="#000000" points="833.9248,-429.5614 828.5804,-420.4133 827.0535,-430.8975 833.9248,-429.5614"/>
</g>
<!-- b1&#45;&gt;b0 -->
<g id="edge14" class="edge">
<title>b1-&gt;b0</title>
<path fill="none" stroke="#c0c0c0" stroke-dasharray="5,2" d="M130.7183,-348.0375C123.1354,-386.4088 102.481,-476.5556 149,-524.8 156.7934,-532.8825 276.4057,-540.6482 368.5463,-545.5542"/>
<polygon fill="#c0c0c0" stroke="#c0c0c0" points="368.6152,-549.0626 378.7855,-546.0938 368.9836,-542.0723 368.6152,-549.0626"/>
</g>
<!-- b2&#45;&gt;b0 -->
<g id="edge15" class="edge">
<title>b2-&gt;b0</title>
<path fill="none" stroke="#c0c0c0" stroke-dasharray="5,2" d="M423.271,-345.73C472.7458,-363.9558 541.8881,-399.0134 573,-456 587.6525,-482.8385 591.3414,-500.3338 573,-524.8 570.1939,-528.5432 564.0739,-531.927 556.1841,-534.9216"/>
<polygon fill="#c0c0c0" stroke="#c0c0c0" points="554.9736,-531.6359 546.6067,-538.1356 557.2007,-538.2722 554.9736,-531.6359"/>
</g>
<!-- b5 -->
<g id="node11" class="node">
<title>b5</title>
<ellipse fill="none" stroke="#000000" cx="327" cy="-402" rx="60.2479" ry="18"/>
<text text-anchor="middle" x="327" y="-397.8" font-family="Times,serif" font-size="14.00" fill="#000000">select-rooms</text>
</g>
<!-- b3&#45;&gt;b5 -->
<g id="edge16" class="edge">
<title>b3-&gt;b5</title>
<path fill="none" stroke="#c0c0c0" stroke-dasharray="5,2" d="M291.1413,-455.8314C295.0172,-447.3707 300.5089,-437.1521 306.1022,-427.9014"/>
<polygon fill="#c0c0c0" stroke="#c0c0c0" points="309.0777,-429.7444 311.4464,-419.4177 303.1549,-426.0133 309.0777,-429.7444"/>
</g>
<!-- b4&#45;&gt;b5 -->
<g id="edge8" class="edge">
<title>b4-&gt;b5</title>
<path fill="none" stroke="#000000" d="M464.6066,-459.6028C437.9189,-448.4312 400.7095,-432.8551 371.7116,-420.7165"/>
<polygon fill="#000000" stroke="#000000" points="372.7953,-417.3759 362.2194,-416.743 370.0923,-423.833 372.7953,-417.3759"/>
</g>
<!-- b5&#45;&gt;b1 -->
<g id="edge17" class="edge">
<title>b5-&gt;b1</title>
<path fill="none" stroke="#c0c0c0" stroke-dasharray="5,2" d="M288.9391,-387.9468C259.5833,-377.1077 218.6027,-361.9764 185.8796,-349.894"/>
<polygon fill="#c0c0c0" stroke="#c0c0c0" points="187.0429,-346.5926 176.4496,-346.4122 184.6182,-353.1593 187.0429,-346.5926"/>
</g>
<!-- b5&#45;&gt;b2 -->
<g id="edge18" class="edge">
<title>b5-&gt;b2</title>
<path fill="none" stroke="#c0c0c0" stroke-dasharray="5,2" d="M337.1348,-384.2022C341.8301,-375.9569 347.5098,-365.9828 352.7103,-356.8501"/>
<polygon fill="#c0c0c0" stroke="#c0c0c0" points="355.79,-358.5149 357.697,-348.0931 349.7071,-355.051 355.79,-358.5149"/>
</g>
<!-- b5&#45;&gt;b3 -->
<g id="edge19" class="edge">
<title>b5-&gt;b3</title>
<path fill="none" stroke="#c0c0c0" stroke-dasharray="5,2" d="M322.7464,-420.4133C318.9953,-428.569 313.768,-438.3212 308.4048,-447.257"/>
<polygon fill="#c0c0c0" stroke="#c0c0c0" points="305.3779,-445.4963 303.0461,-455.8314 311.314,-449.2062 305.3779,-445.4963"/>
</g>
<!-- b6 -->
<g id="node12" class="node">
<title>b6</title>
<ellipse fill="none" stroke="#000000" cx="590" cy="-330" rx="93.1987" ry="18"/>
<text text-anchor="middle" x="590" y="-325.8" font-family="Times,serif" font-size="14.00" fill="#000000">confirm-appointment</text>
</g>
<!-- b5&#45;&gt;b6 -->
<g id="edge9" class="edge">
<title>b5-&gt;b6</title>
<path fill="none" stroke="#000000" d="M371.6144,-389.7862C414.1176,-378.1503 478.5404,-360.5137 526.4128,-347.4079"/>
<polygon fill="#000000" stroke="#000000" points="527.338,-350.7835 536.0589,-344.7671 525.4896,-344.0319 527.338,-350.7835"/>
</g>
<!-- b6&#45;&gt;a1 -->
<g id="edge10" class="edge">
<title>b6-&gt;a1</title>
<path fill="none" stroke="#000000" d="M590.0625,-348.309C590.2316,-397.8028 590.6986,-534.5417 590.9026,-594.2667"/>
<polygon fill="#000000" stroke="#000000" points="587.4032,-594.4961 590.9374,-604.484 594.4032,-594.4721 587.4032,-594.4961"/>
</g>
<!-- c2 -->
<g id="node14" class="node">
<title>c2</title>
<ellipse fill="none" stroke="#000000" cx="815" cy="-330" rx="56.1531" ry="18"/>
<text text-anchor="middle" x="815" y="-325.8" font-family="Times,serif" font-size="14.00" fill="#000000">select-court</text>
</g>
<!-- c1&#45;&gt;c2 -->
<g id="edge21" class="edge">
<title>c1-&gt;c2</title>
<path fill="none" stroke="#000000" d="M822.4766,-383.8314C821.4071,-376.131 820.1353,-366.9743 818.9468,-358.4166"/>
<polygon fill="#000000" stroke="#000000" points="822.3999,-357.8367 817.5574,-348.4133 815.4664,-358.7997 822.3999,-357.8367"/>
</g>
<!-- c3 -->
<g id="node15" class="node">
<title>c3</title>
<ellipse fill="none" stroke="#000000" cx="813" cy="-258" rx="64.8234" ry="18"/>
<text text-anchor="middle" x="813" y="-253.8" font-family="Times,serif" font-size="14.00" fill="#000000">validate-court</text>
</g>
<!-- c2&#45;&gt;c3 -->
<g id="edge22" class="edge">
<title>c2-&gt;c3</title>
<path fill="none" stroke="#000000" d="M814.4953,-311.8314C814.2814,-304.131 814.0271,-294.9743 813.7894,-286.4166"/>
<polygon fill="#000000" stroke="#000000" points="817.2879,-286.3122 813.5115,-276.4133 810.2906,-286.5066 817.2879,-286.3122"/>
</g>
<!-- c4 -->
<g id="node16" class="node">
<title>c4</title>
<ellipse fill="none" stroke="#000000" cx="809" cy="-186" rx="94.8567" ry="18"/>
<text text-anchor="middle" x="809" y="-181.8" font-family="Times,serif" font-size="14.00" fill="#000000">enter-offender-details</text>
</g>
<!-- c3&#45;&gt;c4 -->
<g id="edge23" class="edge">
<title>c3-&gt;c4</title>
<path fill="none" stroke="#000000" d="M811.9906,-239.8314C811.5628,-232.131 811.0541,-222.9743 810.5787,-214.4166"/>
<polygon fill="#000000" stroke="#000000" points="814.0724,-214.2037 810.023,-204.4133 807.0831,-214.592 814.0724,-214.2037"/>
</g>
<!-- c5 -->
<g id="node17" class="node">
<title>c5</title>
<ellipse fill="none" stroke="#000000" cx="807" cy="-114" rx="100.1007" ry="18"/>
<text text-anchor="middle" x="807" y="-109.8" font-family="Times,serif" font-size="14.00" fill="#000000">create-booking-request</text>
</g>
<!-- c4&#45;&gt;c5 -->
<g id="edge24" class="edge">
<title>c4-&gt;c5</title>
<path fill="none" stroke="#000000" d="M808.4953,-167.8314C808.2814,-160.131 808.0271,-150.9743 807.7894,-142.4166"/>
<polygon fill="#000000" stroke="#000000" points="811.2879,-142.3122 807.5115,-132.4133 804.2906,-142.5066 811.2879,-142.3122"/>
</g>
<!-- c6 -->
<g id="node18" class="node">
<title>c6</title>
<ellipse fill="none" stroke="#000000" cx="836" cy="-42" rx="60.8332" ry="18"/>
<text text-anchor="middle" x="836" y="-37.8" font-family="Times,serif" font-size="14.00" fill="#000000">confirmation</text>
</g>
<!-- c5&#45;&gt;c6 -->
<g id="edge25" class="edge">
<title>c5-&gt;c6</title>
<path fill="none" stroke="#000000" d="M814.3179,-95.8314C817.5364,-87.8406 821.3865,-78.2819 824.9432,-69.4514"/>
<polygon fill="#000000" stroke="#000000" points="828.2953,-70.4969 828.7849,-59.9134 821.8022,-67.8816 828.2953,-70.4969"/>
</g>
<!-- c6&#45;&gt;c0 -->
<g id="edge26" class="edge">
<title>c6-&gt;c0</title>
<path fill="none" stroke="#000000" d="M870.9357,-56.9591C887.3669,-65.8523 905.5953,-78.793 916,-96 936.8248,-130.4395 926,-145.7538 926,-186 926,-330 926,-330 926,-330 926,-370.354 934.7358,-385.381 914,-420 906.1626,-433.0849 893.8039,-443.8981 881.3626,-452.3224"/>
<polygon fill="#000000" stroke="#000000" points="879.3521,-449.4531 872.7907,-457.7716 883.1075,-455.3605 879.3521,-449.4531"/>
</g>
</g>
</svg>